<?xml version="1.0" standalone="no"?>
<!DOCTYPE svg PUBLIC "-//W3C//DTD SVG 1.1//EN" "http://www.w3.org/Graphics/SVG/1.1/DTD/svg11.dtd" >
<svg xmlns="http://www.w3.org/2000/svg" xmlns:xlink="http://www.w3.org/1999/xlink" version="1.1">
<metadata>
Created by FontForge 20180930 at Mon Oct  8 19:08:42 2018
 By root
Copyright \(c\) 2017 by Jacob Debono.
</metadata>
<defs>
<font id="Minecraft-Bold" horiz-adv-x="700" >
  <font-face 
    font-family="Minecraft"
    font-weight="700"
    font-stretch="normal"
    units-per-em="1000"
    panose-1="0 0 8 0 0 0 0 0 0 0"
    ascent="800"
    descent="-200"
    x-height="500"
    cap-height="700"
    bbox="0 -200 800 700"
    underline-thickness="50"
    underline-position="-100"
    unicode-range="U+0020-2022"
  />
    <missing-glyph />
    <glyph glyph-name="A" unicode="A" 
d="M500 600h100v-600h-200v400h-200v-400h-200v600h100v100h400v-100zM400 500v100h-200v-100h200z" />
    <glyph glyph-name="Adieresis" unicode="&#xc4;" 
d="M600 600h-100v-100h100v-500h-200v300h-200v-300h-200v500h100v100h-100v100h200v-100h200v100h200v-100zM400 400v100h-200v-100h200z" />
    <glyph glyph-name="Aring" unicode="&#xc5;" 
d="M400 600h-200v100h200v-100zM500 400h100v-400h-200v200h-200v-200h-200v400h100v100h400v-100zM400 300v100h-200v-100h200z" />
    <glyph glyph-name="AE" unicode="&#xc6;" 
d="M400 600v-100h100v-100h-100v-300h200v-100h-600v600h100v100h500v-100h-200z" />
    <glyph glyph-name="B" unicode="B" 
d="M600 500h-100v-100h100v-300h-100v-100h-500v700h500v-100h100v-100zM400 500v100h-200v-100h200zM400 400h-200v-300h200v300z" />
    <glyph glyph-name="C" unicode="C" 
d="M400 500v100h-200v-500h200v100h200v-100h-100v-100h-400v100h-100v500h100v100h400v-100h100v-100h-200z" />
    <glyph glyph-name="Ccedilla" unicode="&#xc7;" 
d="M400 500v100h-200v-500h200v100h200v-300h-100v-100h-300v100h200v100h-300v100h-100v500h100v100h400v-100h100v-100h-200z" />
    <glyph glyph-name="D" unicode="D" 
d="M500 600h100v-500h-100v-100h-500v700h500v-100zM400 100v500h-200v-500h200z" />
    <glyph glyph-name="E" unicode="E" 
d="M200 600v-100h200v-100h-200v-300h400v-100h-600v700h600v-100h-400z" />
    <glyph glyph-name="F" unicode="F" 
d="M600 700v-100h-400v-100h200v-100h-200v-400h-200v700h600z" />
    <glyph glyph-name="G" unicode="G" 
d="M200 100h200v300h-100v100h300v-400h-100v-100h-400v100h-100v500h100v100h500v-100h-400v-500z" />
    <glyph glyph-name="H" unicode="H" 
d="M600 700v-700h-200v400h-200v-400h-200v700h200v-200h200v200h200z" />
    <glyph glyph-name="I" unicode="I" horiz-adv-x="500" 
d="M300 100h100v-100h-400v100h100v500h-100v100h400v-100h-100v-500z" />
    <glyph glyph-name="J" unicode="J" 
d="M600 700v-600h-100v-100h-400v100h-100v100h200v-100h200v600h200z" />
    <glyph glyph-name="K" unicode="K" 
d="M500 500h-100v-100h100v-100h100v-300h-200v300h-100v100h-100v-400h-200v700h200v-200h100v100h100v100h200v-100h-100v-100z" />
    <glyph glyph-name="L" unicode="L" 
d="M600 100v-100h-600v700h200v-600h400z" />
    <glyph glyph-name="M" unicode="M" 
d="M600 700v-700h-200v400h-200v-400h-200v700h200v-100h200v100h200z" />
    <glyph glyph-name="N" unicode="N" 
d="M600 700v-700h-200v300h-100v100h-100v-400h-200v700h200v-100h100v-100h100v200h200z" />
    <glyph glyph-name="Ntilde" unicode="&#xd1;" 
d="M600 700v-100h-600v100h600zM400 500h200v-500h-200v100h-100v100h-100v-200h-200v500h200v-100h100v-100h100v200z" />
    <glyph glyph-name="O" unicode="O" 
d="M500 600h100v-500h-100v-100h-400v100h-100v500h100v100h400v-100zM400 100v500h-200v-500h200z" />
    <glyph glyph-name="Oslash" unicode="&#xd8;" 
d="M500 600h100v-500h-100v-100h-400v100h-100v500h100v100h400v-100zM200 600v-200h100v100h100v100h-200zM400 100v200h-100v-100h-100v-100h200z" />
    <glyph glyph-name="P" unicode="P" 
d="M500 600h100v-100h-100v-100h-300v-400h-200v700h500v-100zM400 500v100h-200v-100h200z" />
    <glyph glyph-name="Q" unicode="Q" 
d="M500 600h100v-400h-100v-100h100v-100h-500v100h-100v500h100v100h400v-100zM300 200h100v400h-200v-500h100v100z" />
    <glyph glyph-name="R" unicode="R" 
d="M600 500h-100v-100h100v-400h-200v400h-200v-400h-200v700h500v-100h100v-100zM400 500v100h-200v-100h200z" />
    <glyph glyph-name="S" unicode="S" 
d="M200 600v-100h300v-100h100v-300h-100v-100h-400v100h-100v100h200v-100h200v300h-300v100h-100v100h100v100h500v-100h-400z" />
    <glyph glyph-name="T" unicode="T" 
d="M600 700v-100h-200v-600h-200v600h-200v100h600z" />
    <glyph glyph-name="U" unicode="U" 
d="M600 700v-600h-100v-100h-400v100h-100v600h200v-600h200v600h200z" />
    <glyph glyph-name="Udieresis" unicode="&#xdc;" 
d="M200 600h-200v100h200v-100zM600 700v-100h-200v100h200zM400 500h200v-400h-100v-100h-400v100h-100v400h200v-400h200v400z" />
    <glyph glyph-name="V" unicode="V" 
d="M600 700v-400h-100v-200h-100v-100h-200v100h-100v200h-100v400h200v-400h200v400h200z" />
    <glyph glyph-name="W" unicode="W" 
d="M600 700v-700h-200v100h-200v-100h-200v700h200v-400h200v400h200z" />
    <glyph glyph-name="X" unicode="X" 
d="M500 500h-100v-100h100v-100h100v-300h-200v300h-200v-300h-200v300h100v100h100v100h-100v100h-100v100h200v-100h200v100h200v-100h-100v-100z" />
    <glyph glyph-name="Y" unicode="Y" 
d="M600 700v-100h-100v-100h-100v-500h-200v500h-100v100h-100v100h200v-100h200v100h200z" />
    <glyph glyph-name="Z" unicode="Z" 
d="M600 700v-200h-100v-100h-100v-100h-100v-100h-100v-100h400v-100h-600v200h100v100h100v100h100v100h100v100h-400v100h600z" />
    <glyph glyph-name="a" unicode="a" 
d="M500 400h100v-400h-500v100h-100v100h100v100h300v100h-300v100h400v-100zM400 100v100h-200v-100h200z" />
    <glyph glyph-name="aacute" unicode="&#xe1;" 
d="M600 700v-100h-300v100h300zM500 500v-100h100v-400h-500v100h-100v100h100v100h300v100h-300v100h400zM400 100v100h-200v-100h200z" />
    <glyph glyph-name="acircumflex" unicode="&#xe2;" 
d="M600 500h-100v-100h100v-400h-500v100h-100v100h100v100h300v100h-300v100h-100v100h100v100h400v-100h100v-100zM400 500v100h-200v-100h200zM400 100v100h-200v-100h200z" />
    <glyph glyph-name="agrave" unicode="&#xe0;" 
d="M0 600v100h300v-100h-300zM500 400h100v-400h-500v100h-100v100h100v100h300v100h-300v100h400v-100zM400 100v100h-200v-100h200z" />
    <glyph glyph-name="aring" unicode="&#xe5;" 
d="M400 600h-200v100h200v-100zM500 400h100v-400h-500v100h-100v100h100v100h300v100h-300v100h400v-100zM400 100v100h-200v-100h200z" />
    <glyph glyph-name="ae" unicode="&#xe6;" 
d="M500 200h-100v-100h200v-100h-500v100h-100v100h100v100h100v100h-100v100h400v-100h100v-100h-100v-100z" />
    <glyph glyph-name="b" unicode="b" 
d="M500 400h100v-300h-100v-100h-500v700h200v-200h300v-100zM400 100v300h-100v-100h-100v-200h200z" />
    <glyph glyph-name="c" unicode="c" 
d="M400 300v100h-200v-300h200v100h200v-100h-100v-100h-400v100h-100v300h100v100h400v-100h100v-100h-200z" />
    <glyph glyph-name="ccedilla" unicode="&#xe7;" 
d="M400 300v100h-200v-300h200v100h200v-300h-100v-100h-300v100h200v100h-300v100h-100v300h100v100h400v-100h100v-100h-200z" />
    <glyph glyph-name="d" unicode="d" 
d="M600 700v-700h-500v100h-100v300h100v100h300v200h200zM400 100v200h-100v100h-100v-300h200z" />
    <glyph glyph-name="e" unicode="e" 
d="M500 400h100v-200h-400v-100h400v-100h-500v100h-100v300h100v100h400v-100zM400 300v100h-200v-100h200z" />
    <glyph glyph-name="ecircumflex" unicode="&#xea;" 
d="M600 500h-100v-100h100v-200h-400v-100h400v-100h-500v100h-100v300h100v100h-100v100h100v100h400v-100h100v-100zM400 500v100h-200v-100h200zM400 300v100h-200v-100h200z" />
    <glyph glyph-name="edieresis" unicode="&#xeb;" 
d="M100 600v100h400v-100h-400zM500 400h100v-200h-400v-100h400v-100h-500v100h-100v300h100v100h400v-100zM400 300v100h-200v-100h200z" />
    <glyph glyph-name="f" unicode="f" horiz-adv-x="600" 
d="M300 600v-100h200v-100h-200v-400h-200v400h-100v100h100v100h100v100h300v-100h-200z" />
    <glyph glyph-name="g" unicode="g" 
d="M600 500v-500h-100v-100h-500v100h400v100h-300v100h-100v200h100v100h500zM400 200v200h-200v-200h200z" />
    <glyph glyph-name="h" unicode="h" 
d="M500 400h100v-400h-200v400h-100v-100h-100v-300h-200v700h200v-200h300v-100z" />
    <glyph glyph-name="i" unicode="i" horiz-adv-x="300" 
d="M200 700v-100h-200v100h200zM0 500h200v-500h-200v500z" />
    <glyph glyph-name="iacute" unicode="&#xed;" horiz-adv-x="400" 
d="M300 700v-100h-300v100h300zM0 500h200v-500h-200v500z" />
    <glyph glyph-name="icircumflex" unicode="&#xee;" horiz-adv-x="500" 
d="M400 700v-100h-400v100h400zM100 500h200v-500h-200v500z" />
    <glyph glyph-name="j" unicode="j" 
d="M600 700v-100h-200v100h200zM400 500h200v-500h-100v-100h-400v100h-100v100h200v-100h200v500z" />
    <glyph glyph-name="k" unicode="k" horiz-adv-x="600" 
d="M400 300h-100v-100h100v-100h100v-100h-200v100h-100v-100h-200v700h200v-300h100v100h200v-100h-100v-100z" />
    <glyph glyph-name="l" unicode="l" horiz-adv-x="400" 
d="M200 100h100v-100h-200v100h-100v600h200v-600z" />
    <glyph glyph-name="m" unicode="m" 
d="M500 400h100v-400h-200v200h-200v-200h-200v500h500v-100z" />
    <glyph glyph-name="n" unicode="n" 
d="M500 400h100v-400h-200v400h-200v-400h-200v500h500v-100z" />
    <glyph glyph-name="ntilde" unicode="&#xf1;" 
d="M600 700v-100h-600v100h600zM500 500v-100h100v-400h-200v400h-200v-400h-200v500h500z" />
    <glyph glyph-name="o" unicode="o" 
d="M500 400h100v-300h-100v-100h-400v100h-100v300h100v100h400v-100zM400 100v300h-200v-300h200z" />
    <glyph glyph-name="oacute" unicode="&#xf3;" 
d="M600 700v-100h-300v100h300zM500 500v-100h100v-300h-100v-100h-400v100h-100v300h100v100h400zM400 400h-200v-300h200v300z" />
    <glyph glyph-name="ocircumflex" unicode="&#xf4;" 
d="M600 500h-100v-100h100v-300h-100v-100h-400v100h-100v300h100v100h-100v100h100v100h400v-100h100v-100zM400 500v100h-200v-100h200zM400 400h-200v-300h200v300z" />
    <glyph glyph-name="odieresis" unicode="&#xf6;" 
d="M100 600v100h400v-100h-400zM500 400h100v-300h-100v-100h-400v100h-100v300h100v100h400v-100zM400 100v300h-200v-300h200z" />
    <glyph glyph-name="ograve" unicode="&#xf2;" 
d="M0 600v100h300v-100h-300zM500 400h100v-300h-100v-100h-400v100h-100v300h100v100h400v-100zM400 100v300h-200v-300h200z" />
    <glyph glyph-name="oslash" unicode="&#xf8;" 
d="M500 400h100v-300h-100v-100h-100v-100h-200v100h-100v100h-100v300h100v100h400v-100zM300 400h-100v-100h100v100zM300 100h100v100h-100v-100z" />
    <glyph glyph-name="p" unicode="p" 
d="M500 400h100v-200h-100v-100h-300v-200h-200v600h500v-100zM400 200v200h-100v-100h-100v-100h200z" />
    <glyph glyph-name="q" unicode="q" 
d="M600 500v-600h-200v200h-300v100h-100v200h100v100h500zM400 200v100h-100v100h-100v-200h200z" />
    <glyph glyph-name="r" unicode="r" 
d="M500 400h100v-100h-200v100h-100v-100h-100v-300h-200v500h500v-100z" />
    <glyph glyph-name="s" unicode="s" 
d="M200 400v-100h300v-100h100v-100h-100v-100h-500v100h400v100h-300v100h-100v100h100v100h500v-100h-400z" />
    <glyph glyph-name="t" unicode="t" horiz-adv-x="500" 
d="M300 100h100v-100h-200v100h-100v300h-100v100h100v200h200v-200h100v-100h-100v-300z" />
    <glyph glyph-name="u" unicode="u" 
d="M600 500v-500h-500v100h-100v400h200v-400h200v400h200z" />
    <glyph glyph-name="uacute" unicode="&#xfa;" 
d="M600 700v-100h-300v100h300zM400 500h200v-500h-500v100h-100v400h200v-400h200v400z" />
    <glyph glyph-name="ucircumflex" unicode="&#xfb;" 
d="M500 600h100v-100h-200v100h-200v-100h-200v100h100v100h400v-100zM400 400h200v-400h-500v100h-100v300h200v-300h200v300z" />
    <glyph glyph-name="udieresis" unicode="&#xfc;" 
d="M100 600v100h400v-100h-400zM600 500v-500h-500v100h-100v400h200v-400h200v400h200z" />
    <glyph glyph-name="ugrave" unicode="&#xf9;" 
d="M0 600v100h300v-100h-300zM600 500v-500h-500v100h-100v400h200v-400h200v400h200z" />
    <glyph glyph-name="v" unicode="v" 
d="M600 500v-300h-100v-100h-100v-100h-200v100h-100v100h-100v300h200v-300h200v300h200z" />
    <glyph glyph-name="w" unicode="w" 
d="M600 500v-500h-500v100h-100v400h200v-200h200v200h200z" />
    <glyph glyph-name="x" unicode="x" 
d="M500 300h-100v-100h100v-100h100v-100h-200v100h-200v-100h-200v100h100v100h100v100h-100v100h-100v100h200v-100h200v100h200v-100h-100v-100z" />
    <glyph glyph-name="y" unicode="y" 
d="M600 500v-500h-100v-100h-500v100h400v100h-300v100h-100v300h200v-300h200v300h200z" />
    <glyph glyph-name="ydieresis" unicode="&#xff;" 
d="M100 600v100h400v-100h-400zM600 500v-500h-100v-100h-500v100h400v100h-300v100h-100v300h200v-300h200v300h200z" />
    <glyph glyph-name="z" unicode="z" 
d="M400 200h-100v-100h300v-100h-600v100h100v100h100v100h100v100h-300v100h600v-100h-100v-100h-100v-100z" />
    <glyph glyph-name="zero" unicode="0" 
d="M500 600h100v-500h-100v-100h-400v100h-100v500h100v100h400v-100zM200 600v-200h100v100h100v100h-200zM400 100v200h-100v-100h-100v-100h200z" />
    <glyph glyph-name="one" unicode="1" 
d="M600 100v-100h-600v100h200v400h-100v100h100v100h200v-600h200z" />
    <glyph glyph-name="two" unicode="2" 
d="M500 600h100v-200h-100v-100h-200v-100h-100v-100h200v100h200v-200h-600v200h100v100h100v100h200v200h-200v-100h-200v100h100v100h400v-100z" />
    <glyph glyph-name="three" unicode="3" 
d="M500 600h100v-200h-100v-100h100v-200h-100v-100h-400v100h-100v100h200v-100h200v200h-200v100h200v200h-200v-100h-200v100h100v100h400v-100z" />
    <glyph glyph-name="four" unicode="4" 
d="M600 700v-700h-200v200h-400v200h100v100h100v100h100v100h300zM400 300v200h-100v-100h-100v-100h200z" />
    <glyph glyph-name="five" unicode="5" 
d="M200 600v-100h300v-100h100v-300h-100v-100h-400v100h-100v100h200v-100h200v300h-400v300h600v-100h-400z" />
    <glyph glyph-name="six" unicode="6" 
d="M500 300h100v-200h-100v-100h-400v100h-100v400h100v100h100v100h300v-100h-200v-100h-100v-100h300v-100zM400 100v200h-200v-200h200z" />
    <glyph glyph-name="seven" unicode="7" 
d="M600 700v-300h-100v-100h-100v-300h-200v300h100v100h100v200h-200v-100h-200v200h600z" />
    <glyph glyph-name="eight" unicode="8" 
d="M500 600h100v-200h-100v-100h100v-200h-100v-100h-400v100h-100v200h100v100h-100v200h100v100h400v-100zM400 400v200h-200v-200h200zM400 300h-200v-200h200v200z" />
    <glyph glyph-name="nine" unicode="9" 
d="M500 600h100v-400h-100v-100h-100v-100h-300v100h200v100h100v100h-300v100h-100v200h100v100h400v-100zM400 400v200h-200v-200h200z" />
    <glyph glyph-name="period" unicode="." horiz-adv-x="300" 
d="M200 200v-200h-200v200h200z" />
    <glyph glyph-name="comma" unicode="," horiz-adv-x="300" 
d="M200 200v-300h-200v300h200z" />
    <glyph glyph-name="colon" unicode=":" horiz-adv-x="300" 
d="M200 600v-200h-200v200h200zM0 200h200v-200h-200v200z" />
    <glyph glyph-name="semicolon" unicode=";" horiz-adv-x="300" 
d="M200 600v-200h-200v200h200zM0 200h200v-300h-200v300z" />
    <glyph glyph-name="exclam" unicode="!" horiz-adv-x="300" 
d="M200 700v-500h-200v500h200zM0 100h200v-100h-200v100z" />
    <glyph glyph-name="exclamdown" unicode="&#xa1;" horiz-adv-x="300" 
d="M200 600v-100h-200v100h200zM0 400h200v-400h-200v400z" />
    <glyph glyph-name="question" unicode="?" 
d="M500 600h100v-200h-100v-100h-100v-100h-200v100h100v100h100v200h-200v-100h-200v100h100v100h400v-100zM200 100h200v-100h-200v100z" />
    <glyph glyph-name="questiondown" unicode="&#xbf;" 
d="M400 600h-200v100h200v-100zM600 200v-100h-100v-100h-400v100h-100v200h100v100h100v100h200v-100h-100v-100h-100v-200h200v100h200z" />
    <glyph glyph-name="periodcentered" unicode="&#xb7;" horiz-adv-x="400" 
d="M300 400v-200h-300v200h300z" />
    <glyph glyph-name="bullet" unicode="&#x2022;" horiz-adv-x="400" 
d="M300 400v-200h-300v200h300z" />
    <glyph glyph-name="asterisk" unicode="*" horiz-adv-x="600" 
d="M500 400h-100v-100h100v-100h-200v100h-100v-100h-200v100h100v100h-100v100h200v-100h100v100h200v-100z" />
    <glyph glyph-name="numbersign" unicode="#" 
d="M600 400h-100v-100h100v-100h-100v-200h-400v200h-100v100h100v100h-100v100h100v200h400v-200h100v-100z" />
    <glyph glyph-name="slash" unicode="/" 
d="M600 700v-100h-100v-200h-100v-100h-100v-200h-100v-100h-200v100h100v200h100v100h100v200h100v100h200z" />
    <glyph glyph-name="backslash" unicode="\" 
d="M500 100h100v-100h-200v100h-100v200h-100v100h-100v200h-100v100h200v-100h100v-200h100v-100h100v-200z" />
    <glyph glyph-name="parenleft" unicode="(" horiz-adv-x="600" 
d="M200 200h100v-100h200v-100h-300v100h-100v100h-100v300h100v100h100v100h300v-100h-200v-100h-100v-300z" />
    <glyph glyph-name="parenright" unicode=")" horiz-adv-x="600" 
d="M400 500h100v-300h-100v-100h-100v-100h-300v100h200v100h100v300h-100v100h-200v100h300v-100h100v-100z" />
    <glyph glyph-name="braceleft" unicode="{" horiz-adv-x="600" 
d="M300 400h-100v-100h100v-200h200v-100h-300v100h-100v200h-100v100h100v200h100v100h300v-100h-200v-200z" />
    <glyph glyph-name="braceright" unicode="}" horiz-adv-x="600" 
d="M400 400h100v-100h-100v-200h-100v-100h-300v100h200v200h100v100h-100v200h-200v100h300v-100h100v-200z" />
    <glyph glyph-name="bracketleft" unicode="[" horiz-adv-x="500" 
d="M200 100h200v-100h-400v700h400v-100h-200v-500z" />
    <glyph glyph-name="bracketright" unicode="]" horiz-adv-x="500" 
d="M400 700v-700h-400v100h200v500h-200v100h400z" />
    <glyph glyph-name="hyphen" unicode="-" 
d="M600 400v-100h-600v100h600z" />
    <glyph glyph-name="uni00AD" unicode="&#xad;" horiz-adv-x="400" 
d="M300 400v-100h-300v100h300z" />
    <glyph glyph-name="emdash" unicode="&#x2014;" 
d="M600 400v-100h-600v100h600z" />
    <glyph glyph-name="underscore" unicode="_" 
d="M600 0v-100h-600v100h600z" />
    <glyph glyph-name="guillemotleft" unicode="&#xab;" 
d="M500 300h-100v-100h100v-100h100v-100h-400v100h-100v100h-100v100h100v100h100v100h400v-100h-100v-100z" />
    <glyph glyph-name="guillemotright" unicode="&#xbb;" 
d="M500 300h100v-100h-100v-100h-100v-100h-400v100h100v100h100v100h-100v100h-100v100h400v-100h100v-100z" />
    <glyph glyph-name="quotedbl" unicode="&#x22;" horiz-adv-x="600" 
d="M500 700v-200h-100v-100h-400v100h100v200h400z" />
    <glyph glyph-name="quotesingle" unicode="'" horiz-adv-x="400" 
d="M300 700v-200h-100v-100h-200v100h100v200h200z" />
    <glyph glyph-name="space" unicode=" " horiz-adv-x="400" 
 />
    <glyph glyph-name="cent" unicode="&#xa2;" horiz-adv-x="600" 
d="M200 300v-100h300v-100h-100v-100h-200v100h-100v100h-100v100h100v100h100v100h200v-100h100v-100h-300z" />
    <glyph glyph-name="currency" unicode="&#xa4;" horiz-adv-x="500" 
d="M400 400h-100v-100h100v-100h-400v100h100v100h-100v100h400v-100z" />
    <glyph glyph-name="dollar" unicode="$" 
d="M200 500v-100h300v-100h100v-100h-100v-100h-100v-100h-200v100h-200v100h400v100h-300v100h-100v100h100v100h100v100h200v-100h200v-100h-400z" />
    <glyph glyph-name="florin" unicode="&#x192;" 
d="M500 600h100v-100h-200v-100h100v-100h-100v-200h-100v-100h-200v100h-100v100h200v100h-100v100h100v200h100v100h200v-100z" />
    <glyph glyph-name="sterling" unicode="&#xa3;" 
d="M400 500v100h-100v-200h200v-100h-200v-200h300v-100h-600v100h100v200h-100v100h100v200h100v100h300v-100h100v-100h-200z" />
    <glyph glyph-name="plus" unicode="+" 
d="M600 400v-100h-200v-200h-200v200h-200v100h200v200h200v-200h200z" />
    <glyph glyph-name="divide" unicode="&#xf7;" 
d="M400 500h-200v100h200v-100zM600 400v-100h-600v100h600zM200 200h200v-100h-200v100z" />
    <glyph glyph-name="equal" unicode="=" 
d="M600 500v-100h-600v100h600zM600 200v-100h-600v100h600z" />
    <glyph glyph-name="greater" unicode="&#x3e;" horiz-adv-x="600" 
d="M400 400h100v-100h-100v-100h-100v-100h-100v-100h-200v100h100v100h100v100h100v100h-100v100h-100v100h-100v100h200v-100h100v-100h100v-100z" />
    <glyph glyph-name="less" unicode="&#x3c;" horiz-adv-x="600" 
d="M300 400h-100v-100h100v-100h100v-100h100v-100h-200v100h-100v100h-100v100h-100v100h100v100h100v100h100v100h200v-100h-100v-100h-100v-100z" />
    <glyph glyph-name="plusminus" unicode="&#xb1;" 
d="M200 400h-200v100h200v200h200v-200h100v-100h-100v-200h-200v200zM600 100v-100h-600v100h600z" />
    <glyph glyph-name="asciitilde" unicode="~" horiz-adv-x="800" 
d="M700 700v-100h-100v-100h-300v100h-100v-100h-200v100h100v100h300v-100h100v100h200z" />
    <glyph glyph-name="logicalnot" unicode="&#xac;" 
d="M600 300v-200h-200v100h-400v100h600z" />
    <glyph glyph-name="percent" unicode="%" 
d="M600 700v-100h-100v-200h-100v-100h-100v-200h-100v-100h-200v100h100v200h100v100h100v200h100v100h200zM200 500h-200v200h200v-200zM400 200h200v-200h-200v200z" />
    <glyph glyph-name="at" unicode="@" horiz-adv-x="800" 
d="M600 600h100v-400h-500v-100h400v-100h-500v100h-100v500h100v100h500v-100zM200 600v-100h300v100h-300z" />
    <glyph glyph-name="ampersand" unicode="&#x26;" 
d="M500 300v-200h100v-100h-500v100h-100v200h100v100h100v100h-100v100h100v100h200v-100h100v-100h-100v-100h200v-100h-100zM200 100h100v100h-100v-100z" />
    <glyph glyph-name="paragraph" unicode="&#xb6;" horiz-adv-x="900" 
d="M800 700v-700h-200v600h-100v-600h-200v300h-200v100h-100v200h100v100h700zM200 400h100v200h-100v-200z" />
    <glyph glyph-name="section" unicode="&#xa7;" 
d="M200 600v-100h300v-100h100v-100h-100v-100h100v-100h-100v-100h-500v100h400v100h-300v100h-100v100h100v100h-100v100h100v100h500v-100h-400zM200 400v-100h200v100h-200z" />
    <glyph glyph-name="registered" unicode="&#xae;" 
d="M200 400h-100v100h400v-100h-100v-100h-100v-100h-100v200zM400 200v-100h100v-100h-400v100h-100v300h100v-200h100v-100h100v100h100zM500 400h100v-300h-100v300z" />
    <glyph glyph-name="bar" unicode="|" horiz-adv-x="300" 
d="M200 700v-300h-200v300h200zM0 300h200v-300h-200v300z" />
    <glyph glyph-name="asciicircum" unicode="^" 
d="M500 500h100v-100h-200v100h-200v-100h-200v100h100v100h100v100h200v-100h100v-100z" />
    <glyph glyph-name="cedilla" unicode="&#xb8;" horiz-adv-x="500" 
d="M400 0v-100h-100v-100h-300v100h200v100h200z" />
  </font>
</defs>
</svg>
